<?xml version="1.0" encoding="UTF-8"?> <svg xmlns="http://www.w3.org/2000/svg" width="80" height="80" viewBox="0 0 80 80" fill="none"> <circle cx="40" cy="40" r="39.5" fill="#F7D959" stroke="#EA725E"></circle> <path d="M32.0801 46.48V49.408C32.0801 50.56 33.0401 51.52 34.1921 51.52H45.8081C46.9601 51.52 47.9201 50.56 47.9201 49.408V46.48H32.0801ZM41.0561 48.88L40.2401 49.696C40.1441 49.792 39.9521 49.792 39.8081 49.696L38.9921 48.88C38.8961 48.784 38.8481 48.688 38.8001 48.592C38.6561 48.208 38.8961 47.824 39.2321 47.68C39.5201 47.584 39.8081 47.68 40.0001 47.872C40.1921 47.68 40.4801 47.584 40.7681 47.68C40.8641 47.728 40.9601 47.776 41.0561 47.872C41.3441 48.16 41.3441 48.64 41.0561 48.88Z" fill="#2E2D25"></path> <path d="M32.0803 41.008C33.1843 41.2 34.3843 40.816 35.2003 40.048C35.3923 39.856 35.6803 39.856 35.8723 40.096C36.0643 40.288 36.0643 40.576 35.8243 40.768C34.9603 41.584 33.8083 42.016 32.6083 42.016C32.4163 42.016 32.2243 42.016 32.0323 41.968V45.472H47.9203V41.968C47.7283 41.968 47.5363 42.016 47.3443 42.016C46.1443 42.016 45.0403 41.584 44.1283 40.768C43.9363 40.576 43.9363 40.288 44.0803 40.096C44.2723 39.904 44.5603 39.904 44.7523 40.048C45.4243 40.672 46.3363 41.056 47.2963 41.056C47.4883 41.056 47.6803 41.056 47.8723 41.008C50.0803 40.48 51.6163 38.416 51.4243 36.112C51.2803 33.808 49.3123 31.888 46.9603 31.744C46.3843 31.696 45.8563 31.792 45.3283 31.984C45.4723 32.896 45.3283 33.856 45.0883 34.48C44.9923 34.672 44.8483 34.768 44.6563 34.768C44.6083 34.768 44.5603 34.768 44.4643 34.72C44.2243 34.624 44.0803 34.336 44.1763 34.096C44.4163 33.52 44.4643 32.944 44.4163 32.32C44.1283 30.16 42.1603 28.48 39.8563 28.48C37.9363 28.48 36.2563 29.632 35.5363 31.312C36.2563 31.744 36.9283 32.464 37.3123 33.088C37.4563 33.328 37.3603 33.616 37.1203 33.76C37.0243 33.808 36.9763 33.808 36.8803 33.808C36.6883 33.808 36.5443 33.712 36.4483 33.568C36.1603 33.04 35.7283 32.608 35.2483 32.272C34.5763 31.936 33.8083 31.792 33.0403 31.792C30.6403 31.84 28.6723 33.76 28.4803 36.16C28.3363 38.464 29.8243 40.48 32.0803 41.008Z" fill="#2E2D25"></path> </svg> 