<?xml version="1.0" encoding="UTF-8"?> <svg xmlns="http://www.w3.org/2000/svg" width="80" height="80" viewBox="0 0 80 80" fill="none"> <circle cx="40" cy="40" r="39.5" fill="#F7D959" stroke="#EA725E"></circle> <path d="M48.2556 48.256H35.3916C35.1036 48.256 34.9116 48.064 34.9116 47.776C34.9116 47.488 35.1036 47.296 35.3916 47.296H47.6796C48.4956 42.448 48.4956 37.504 47.6796 32.704H35.3916C35.1036 32.704 34.9116 32.512 34.9116 32.224C34.9116 31.936 35.1036 31.744 35.3916 31.744H48.2556L48.3516 31.6C48.7836 31.168 49.0236 30.592 48.9756 29.968V28.96C48.9756 28.672 48.7836 28.48 48.4956 28.48H31.4556C31.1676 28.48 30.9756 28.672 30.9756 28.96V29.968C30.9756 30.592 31.2156 31.168 31.6476 31.6L32.3676 32.368C31.5036 37.408 31.5036 42.592 32.3676 47.632L31.6476 48.352C31.2156 48.784 30.9756 49.408 30.9756 50.032V51.04C30.9756 51.328 31.1676 51.52 31.4556 51.52H48.5436C48.8316 51.52 49.0236 51.328 49.0236 51.04V50.032C49.0236 49.408 48.7836 48.832 48.3516 48.352L48.2556 48.256Z" fill="#2E2D25"></path> <path d="M39.111 42.9974C39.111 42.9974 41.0618 43.1177 42.1623 41.7336C43.2627 40.3496 42.9626 38.0026 42.9626 38.0026C42.9626 38.0026 41.0118 37.8823 39.9113 39.2664C39.5612 39.7478 39.3111 40.3496 39.211 41.0115C39.161 40.7708 39.111 40.5301 39.0109 40.3496C38.5607 39.5673 37.9105 39.0858 37.1601 38.8451C36.91 39.7478 36.9601 40.6504 37.2602 41.5531C37.6604 42.2752 38.3607 42.8168 39.111 42.9974Z" fill="#F7D959"></path> </svg> 