<?xml version="1.0" encoding="UTF-8"?> <svg xmlns="http://www.w3.org/2000/svg" width="80" height="80" viewBox="0 0 80 80" fill="none"> <circle cx="40" cy="40" r="39.5" fill="#F7D959" stroke="#EA725E"></circle> <path d="M34.96 43.648V50.368H39.52V42.64H35.968C35.44 42.64 34.96 43.072 34.96 43.648Z" fill="#2E2D25"></path> <path d="M44.0325 42.64H40.4805V50.368H45.0405V43.648C45.0405 43.072 44.6085 42.64 44.0325 42.64Z" fill="#2E2D25"></path> <path d="M33.9999 47.3441H30.2559V49.8881C30.2559 50.1761 30.4479 50.3681 30.7359 50.3681H34.0479V47.3441H33.9999Z" fill="#2E2D25"></path> <path d="M51.3763 37.1201L49.6003 35.5841L42.7843 29.7281C42.6883 29.6321 42.5923 29.6321 42.4483 29.6321H37.5043C37.4083 29.6321 37.2643 29.6801 37.1683 29.7281L33.4243 32.9441C32.4643 33.8081 33.4243 32.9441 32.4643 33.8081L30.4003 35.5841L28.6243 37.1201C28.4323 37.3121 28.3843 37.6001 28.5763 37.7921C28.6723 37.8881 28.8163 37.9361 28.9603 37.9361C29.0563 37.9361 29.2003 37.8881 29.2963 37.8401L30.2563 36.9761V46.3361H34.0483V43.6001C34.0483 42.4961 34.9123 41.6321 36.0163 41.6321H44.0803C45.1843 41.6321 46.0483 42.4961 46.0483 43.6001V46.3361H49.7923V36.9761L50.7523 37.8401C50.8483 37.9361 50.9443 37.9361 51.0883 37.9361C51.2323 37.9361 51.3763 37.8881 51.4723 37.7921C51.5683 37.6001 51.5203 37.3121 51.3763 37.1201ZM37.7923 35.7761L39.1363 34.3841C39.1363 34.3841 39.1363 34.3841 39.1843 34.3361C39.6643 33.9041 40.3843 33.9041 40.8643 34.3841L42.2083 35.7761H37.7923Z" fill="#2E2D25"></path> <path d="M46 47.3441V50.3681H49.264C49.552 50.3681 49.744 50.1761 49.744 49.8881V47.3441H46Z" fill="#2E2D25"></path> </svg> 