<?xml version="1.0" encoding="UTF-8"?> <svg xmlns="http://www.w3.org/2000/svg" width="162" height="25" viewBox="0 0 162 25" fill="none"> <g clip-path="url(#clip0)"> <path d="M32.3516 6.18445H36.0877V7.63618C36.6535 7.06935 37.3293 6.62434 38.0735 6.32853C38.8177 6.03272 39.6146 5.89238 40.4151 5.91616C41.5118 5.92181 42.5877 6.21683 43.5339 6.77138C44.4801 7.32593 45.2631 8.12036 45.804 9.07446C46.453 10.2442 46.7736 11.5677 46.7317 12.9048C46.7739 14.2471 46.4385 15.5742 45.7636 16.7352C45.1628 17.7422 44.2927 18.5613 43.2513 19.1003C42.2423 19.6236 41.122 19.8957 39.9853 19.8935C39.2509 19.8972 38.5217 19.7699 37.8319 19.5175C37.1953 19.2923 36.6038 18.9556 36.085 18.5234V25.0015H32.3516V6.18445ZM41.9342 10.0552C41.2833 9.42639 40.4214 9.06282 39.5169 9.03544C38.6123 9.00807 37.73 9.31885 37.0423 9.90712C36.723 10.207 36.4724 10.5725 36.3077 10.9784C36.1431 11.3844 36.0683 11.8212 36.0886 12.2588V13.549C36.0709 13.9843 36.1469 14.4184 36.3114 14.8218C36.476 15.2252 36.7252 15.5885 37.0423 15.8873C37.6888 16.4825 38.5427 16.8007 39.4209 16.7738C39.8904 16.792 40.3583 16.7104 40.7939 16.5344C41.2294 16.3584 41.6227 16.092 41.9476 15.7527C42.5773 14.9357 42.9176 13.9327 42.9152 12.9012C42.9128 11.8697 42.5677 10.8683 41.9342 10.0543V10.0552Z" fill="white"></path> <path d="M69.9576 6.18414H72.8063V8.87588H69.9576V15.4886C69.946 15.6715 69.9735 15.8548 70.0383 16.0262C70.1031 16.1976 70.2037 16.3533 70.3335 16.4827C70.6343 16.7329 71.0198 16.8578 71.4102 16.8318C71.776 16.8189 72.1384 16.7555 72.4869 16.6433L72.6744 16.751V19.6276C71.8989 19.8073 71.1053 19.8976 70.3093 19.8968C69.2202 19.955 68.1509 19.589 67.3259 18.8757C66.9364 18.4716 66.6369 17.9897 66.447 17.4616C66.2571 16.9335 66.1811 16.3712 66.2241 15.8116V8.87229H63.832V6.18055H66.2241V2.34033H66.7077L69.9602 3.46907L69.9576 6.18414Z" fill="white"></path> <path d="M81.2594 9.02075C80.8373 8.68283 80.3086 8.50658 79.7682 8.52369C79.3687 8.51135 78.9736 8.60913 78.626 8.80633C78.4845 8.87821 78.3657 8.98784 78.2828 9.12308C78.1998 9.25832 78.1558 9.41391 78.1558 9.57258C78.1558 9.96737 78.4067 10.2898 78.9086 10.5398C79.8028 10.9247 80.7291 11.2306 81.6766 11.4541C82.795 11.6973 83.8374 12.2092 84.7138 12.9453C85.0417 13.2733 85.2972 13.6662 85.464 14.0989C85.6307 14.5316 85.705 14.9945 85.6819 15.4576C85.6924 16.2631 85.4632 17.0536 85.0233 17.7286C84.5568 18.4239 83.9038 18.9737 83.1391 19.3149C82.0646 19.7629 80.9005 19.9548 79.739 19.8755C78.5775 19.7962 77.4503 19.448 76.4465 18.8582C75.4446 18.1582 74.725 17.124 74.417 15.9412L74.5247 15.5922L77.4012 14.7326C77.502 15.4151 77.8638 16.0318 78.4102 16.4529C78.9566 16.8739 79.6451 17.0666 80.3308 16.9901C80.8079 17.0114 81.2806 16.8899 81.6883 16.6411C81.8528 16.54 81.9878 16.3974 82.0797 16.2276C82.1717 16.0578 82.2174 15.8669 82.2123 15.6738C82.2144 15.4664 82.1591 15.2625 82.0523 15.0846C81.9456 14.9067 81.7916 14.7619 81.6075 14.6663C80.8596 14.2989 80.07 14.0236 79.2559 13.8462C78.0821 13.6226 76.9827 13.1097 76.0572 12.354C75.4604 11.7711 75.0865 10.9975 75.0007 10.1677C74.9148 9.33782 75.1223 8.5041 75.587 7.81127C76.0198 7.2043 76.6089 6.72588 77.2918 6.42682C78.0865 6.07396 78.949 5.89969 79.8184 5.91628C81.0504 5.86071 82.2698 6.18419 83.3123 6.84313C84.2084 7.46118 84.8335 8.39912 85.0592 9.46401L84.9247 9.75919L82.049 10.4582C81.963 9.90109 81.6834 9.39212 81.2594 9.02075Z" fill="white"></path> <path d="M91.5595 7.85123C92.1375 7.25008 92.8329 6.77424 93.6025 6.45331C94.4249 6.09504 95.3129 5.91171 96.2099 5.91496C97.5038 5.85772 98.7684 6.31148 99.7307 7.1783C100.184 7.6189 100.538 8.15068 100.77 8.73846C101.002 9.32624 101.107 9.95661 101.077 10.5878V19.6186H97.3136V11.5281C97.3373 11.2005 97.2909 10.8716 97.1773 10.5634C97.0637 10.2551 96.8857 9.97471 96.655 9.74082C96.1861 9.3267 95.5752 9.10998 94.9502 9.13607C94.2895 9.13474 93.64 9.30611 93.066 9.63316C92.46 9.97852 91.9441 10.4621 91.5604 11.0445V19.6186H87.7974V0.00390625H91.5604L91.5595 7.85123Z" fill="white"></path> <path d="M114.512 6.82977C115.593 7.41016 116.494 8.27448 117.12 9.32951C117.737 10.4201 118.061 11.6517 118.061 12.9046C118.061 14.1575 117.737 15.3891 117.12 16.4797C116.495 17.535 115.593 18.3993 114.512 18.9794C113.344 19.5804 112.05 19.8939 110.736 19.8939C109.422 19.8939 108.128 19.5804 106.959 18.9794C105.879 18.3996 104.977 17.5351 104.352 16.4797C103.735 15.3891 103.411 14.1575 103.411 12.9046C103.411 11.6517 103.735 10.4201 104.352 9.32951C104.977 8.27422 105.879 7.40983 106.959 6.82977C108.128 6.22927 109.422 5.91602 110.736 5.91602C112.05 5.91602 113.344 6.22927 114.512 6.82977ZM108.314 10.1765C107.664 10.9365 107.306 11.9041 107.306 12.9046C107.306 13.9051 107.664 14.8727 108.314 15.6327C108.651 15.9669 109.052 16.2287 109.494 16.4019C109.935 16.5752 110.407 16.6563 110.881 16.6403C111.353 16.657 111.824 16.5762 112.263 16.4028C112.703 16.2295 113.101 15.9673 113.435 15.6327C114.077 14.8688 114.43 13.9027 114.43 12.9046C114.43 11.9065 114.077 10.9404 113.435 10.1765C113.101 9.84192 112.703 9.57973 112.263 9.40635C111.824 9.23297 111.353 9.15213 110.881 9.16889C110.407 9.15296 109.935 9.23413 109.494 9.40742C109.053 9.5807 108.651 9.84244 108.314 10.1765Z" fill="white"></path> <path d="M120.398 6.18445H124.134V7.63618C124.7 7.06935 125.376 6.62434 126.12 6.32853C126.864 6.03272 127.661 5.89238 128.462 5.91616C129.559 5.92165 130.635 6.21657 131.581 6.77113C132.527 7.32569 133.311 8.12023 133.852 9.07446C134.501 10.2443 134.821 11.5677 134.779 12.9048C134.822 14.2471 134.486 15.5742 133.811 16.7352C133.211 17.7422 132.34 18.5613 131.299 19.1003C130.29 19.6235 129.17 19.8956 128.033 19.8935C127.299 19.8972 126.569 19.7699 125.88 19.5175C125.243 19.2922 124.651 18.9556 124.133 18.5234V25.0015H120.396L120.398 6.18445ZM129.981 10.0552C129.33 9.42639 128.468 9.06282 127.564 9.03544C126.659 9.00807 125.777 9.31885 125.089 9.90712C124.77 10.2069 124.519 10.5724 124.354 10.9783C124.189 11.3843 124.114 11.8211 124.134 12.2588V13.549C124.117 13.9844 124.193 14.4185 124.358 14.8219C124.522 15.2253 124.772 15.5886 125.089 15.8873C125.736 16.4825 126.589 16.8007 127.468 16.7738C127.937 16.792 128.405 16.7104 128.841 16.5344C129.276 16.3584 129.669 16.092 129.994 15.7527C130.624 14.9357 130.964 13.9327 130.962 12.9012C130.96 11.8697 130.614 10.8683 129.981 10.0543V10.0552Z" fill="white"></path> <path d="M141.275 7.79808C141.74 7.24052 142.305 6.7754 142.941 6.42707C143.577 6.08468 144.289 5.90904 145.011 5.91654C145.452 5.89929 145.891 5.97228 146.302 6.13099L145.818 9.0919L145.631 9.27944C145.332 9.19849 145.025 9.15329 144.716 9.14483C144.005 9.13762 143.309 9.35384 142.727 9.76303C142.094 10.2261 141.594 10.847 141.275 11.5638V19.6274H137.507V6.18483H141.27L141.275 7.79808Z" fill="white"></path> <path d="M157.742 17.9578C157.193 18.5758 156.518 19.0685 155.762 19.4025C155.006 19.7364 154.187 19.9038 153.361 19.8932C152.723 19.9279 152.085 19.8286 151.487 19.6018C150.89 19.3749 150.347 19.0255 149.893 18.576C149.461 18.1013 149.127 17.5459 148.91 16.9417C148.693 16.3375 148.598 15.6964 148.63 15.0553V6.18506H152.393V14.2755C152.349 14.9215 152.561 15.5587 152.984 16.0494C153.203 16.263 153.465 16.4283 153.752 16.5348C154.038 16.6413 154.345 16.6865 154.65 16.6676C155.284 16.6712 155.904 16.4788 156.424 16.1167C156.972 15.7384 157.423 15.2365 157.741 14.6515V6.18506H161.504V19.6249H157.741L157.742 17.9578Z" fill="white"></path> <path d="M62.0503 15.6198L59.0624 14.7907C58.8614 15.4303 58.4493 15.9827 57.8935 16.3575C57.3377 16.7324 56.6711 16.9076 56.0028 16.8544C55.14 16.8853 54.2966 16.5932 53.6377 16.0352C52.999 15.4678 52.6117 14.67 52.561 13.8172H62.6945V12.823C62.7258 11.5451 62.4345 10.2799 61.8475 9.14435C61.305 8.12743 60.4723 7.29478 59.4554 6.75227C58.3658 6.18256 57.1505 5.89594 55.9212 5.91874C54.727 5.91324 53.5519 6.21874 52.5117 6.8052C51.4609 7.38995 50.5843 8.24333 49.9716 9.27802C49.323 10.3757 48.9912 11.6317 49.0132 12.9065C48.9873 14.1813 49.2931 15.4409 49.9006 16.5619C50.4707 17.5982 51.3237 18.4511 52.36 19.0212C53.5526 19.634 54.8815 19.9332 56.2217 19.8908C57.5618 19.8484 58.8691 19.4658 60.0207 18.779C61.0255 18.0809 61.7914 17.0908 62.2144 15.9428L62.0503 15.6198ZM53.8252 9.46466C54.4068 8.98408 55.1408 8.72668 55.8952 8.73877C56.6928 8.71183 57.4741 8.9691 58.0997 9.46466C58.3911 9.70213 58.6318 9.99587 58.8072 10.3284C58.9827 10.6609 59.0893 11.0254 59.1207 11.4H52.6695C52.8202 10.641 53.2285 9.95733 53.8252 9.46466Z" fill="white"></path> <path d="M22.8918 11.4608C22.6038 9.80721 21.7039 4.82122 21.0884 1.41169C21.0318 1.09864 20.8892 0.80752 20.6765 0.571009C20.4638 0.334498 20.1893 0.161946 19.884 0.0726873C19.5787 -0.0165715 19.2546 -0.0190053 18.9479 0.0656776C18.6413 0.15036 18.3643 0.318812 18.1481 0.552115L14.0207 5.00426H9.02126L4.89394 0.552115C4.6777 0.318812 4.40074 0.15036 4.09412 0.0656776C3.78749 -0.0190053 3.46331 -0.0165715 3.15799 0.0726873C2.85266 0.161946 2.57823 0.334498 2.3655 0.571009C2.15278 0.80752 2.0102 1.09864 1.95368 1.41169C1.33817 4.82122 0.437324 9.809 0.150205 11.4608C-0.156279 13.4212 0.0286811 15.4271 0.688532 17.2983C1.47155 19.5482 2.93546 21.4985 4.87713 22.8786C6.8188 24.2588 9.14192 25.0003 11.5241 25.0003C13.9063 25.0003 16.2295 24.2588 18.1712 22.8786C20.1128 21.4985 21.5767 19.5482 22.3598 17.2983C23.0175 15.4265 23.2003 13.4207 22.8918 11.4608Z" fill="white"></path> </g> <defs> <clipPath id="clip0"> <rect width="161.505" height="25" fill="white"></rect> </clipPath> </defs> </svg> 