<?xml version="1.0" encoding="UTF-8"?> <svg xmlns="http://www.w3.org/2000/svg" width="195" height="195" viewBox="0 0 195 195" fill="none"> <path d="M97.5 195C151.348 195 195 151.348 195 97.5C195 43.6522 151.348 0 97.5 0C43.6522 0 0 43.6522 0 97.5C0 151.348 43.6522 195 97.5 195Z" fill="#F8DC55"></path> <path d="M101.08 134.37C100.463 134.172 99.8028 134.147 99.1719 134.297C98.541 134.447 97.963 134.766 97.5003 135.22C97.0346 134.77 96.4565 134.454 95.8267 134.305C95.1968 134.155 94.5384 134.178 93.9203 134.37C93.3753 134.546 92.8855 134.861 92.4986 135.284C92.1117 135.706 91.8411 136.221 91.7131 136.78C91.5851 137.338 91.6042 137.92 91.7684 138.469C91.9327 139.017 92.2366 139.514 92.6503 139.91L96.5202 143.79C96.6484 143.927 96.8033 144.036 96.9753 144.111C97.1473 144.185 97.3328 144.224 97.5202 144.224C97.7077 144.224 97.8932 144.185 98.0652 144.111C98.2372 144.036 98.3921 143.927 98.5202 143.79L102.39 139.91C102.804 139.514 103.108 139.017 103.272 138.469C103.436 137.92 103.455 137.338 103.327 136.78C103.199 136.221 102.929 135.706 102.542 135.284C102.155 134.861 101.665 134.546 101.12 134.37H101.08Z" fill="white"></path> <path d="M130.5 54.45C126.941 54.4504 123.428 55.25 120.22 56.79C118.605 52.046 115.546 47.9265 111.471 45.0092C107.397 42.0919 102.511 40.5232 97.5 40.5232C92.4887 40.5232 87.6031 42.0919 83.5285 45.0092C79.4539 47.9265 76.3947 52.046 74.78 56.79C71.5718 55.25 68.0587 54.4504 64.5 54.45C58.7867 54.4413 53.2576 56.4711 48.907 60.1745C44.5563 63.8778 41.6696 69.0117 40.7657 74.6531C39.8618 80.2945 41.0001 86.0733 43.9759 90.9505C46.9518 95.8277 51.5699 99.4833 57 101.26V154.5H138V101.26C143.43 99.4833 148.048 95.8277 151.024 90.9505C154 86.0733 155.138 80.2945 154.234 74.6531C153.33 69.0117 150.444 63.8778 146.093 60.1745C141.742 56.4711 136.213 54.4413 130.5 54.45ZM61 150.5V128H134V150.5H61ZM135.5 97.82L134 98.21V124H61V98.21L59.5 97.82C56.7098 97.1026 54.1076 95.7908 51.8714 93.9745C49.6351 92.1582 47.8177 89.8802 46.5434 87.2964C45.2692 84.7126 44.5681 81.884 44.4883 79.0042C44.4085 76.1243 44.9518 73.2612 46.0811 70.6108C47.2103 67.9604 48.8988 65.5853 51.031 63.6479C53.1632 61.7105 55.6888 60.2567 58.435 59.3858C61.1811 58.5149 64.083 58.2476 66.942 58.6022C69.8011 58.9567 72.5498 59.9248 75 61.44L77.4 62.92L78 60.17C79.007 55.7514 81.4849 51.8057 85.0277 48.9795C88.5705 46.1533 92.9681 44.6141 97.5 44.6141C102.032 44.6141 106.43 46.1533 109.972 48.9795C113.515 51.8057 115.993 55.7514 117 60.17L117.6 62.92L120 61.44C122.45 59.9248 125.199 58.9567 128.058 58.6022C130.917 58.2476 133.819 58.5149 136.565 59.3858C139.311 60.2567 141.837 61.7105 143.969 63.6479C146.101 65.5853 147.79 67.9604 148.919 70.6108C150.048 73.2612 150.591 76.1243 150.512 79.0042C150.432 81.884 149.731 84.7126 148.457 87.2964C147.182 89.8802 145.365 92.1582 143.129 93.9745C140.892 95.7908 138.29 97.1026 135.5 97.82Z" fill="white"></path> </svg> 