<?xml version="1.0" encoding="UTF-8"?> <svg xmlns="http://www.w3.org/2000/svg" width="195" height="195" viewBox="0 0 195 195" fill="none"> <path d="M97.5 195C151.348 195 195 151.348 195 97.5C195 43.6522 151.348 0 97.5 0C43.6522 0 0 43.6522 0 97.5C0 151.348 43.6522 195 97.5 195Z" fill="#B86874"></path> <path d="M137.17 82.5099C132.17 70.5099 123.29 59.1299 111.47 49.5899C107.68 46.5299 99.7201 41.0799 99.3801 40.8499L98.3801 40.1299L97.2801 40.7799L94.5001 42.4199C91.0248 44.3413 87.6838 46.4962 84.5001 48.8699C74.6532 56.4466 66.4817 65.98 60.5001 76.8699C54.2101 88.7999 52.0501 100.87 54.2601 111.62C56.5501 122.8 63.6301 133 75.2601 141.95C81.8585 146.936 89.046 151.091 96.6601 154.32L97.4601 154.66L98.2501 154.31C104.983 151.183 111.388 147.395 117.37 143C130.64 133.2 138.5 122.67 140.76 111.68C142.6 102.64 141.36 92.5699 137.17 82.5099ZM127.83 73.3599L99.4901 101.7V80.1899L118.33 61.3499C117.43 60.3499 116.49 59.4399 115.52 58.5099C120.176 62.9749 124.306 67.9572 127.83 73.3599ZM115.52 58.5099L99.5201 74.5099V45.7899C102.22 47.6699 106.52 50.7899 108.99 52.7099C111.46 54.6299 113.45 56.5099 115.52 58.5099ZM86.9101 51.9999C89.6445 49.9565 92.5107 48.0958 95.4901 46.4299V75.1699L79.1601 58.8299C78.1601 59.7699 77.2601 60.7199 76.3601 61.6899L95.4901 80.8199V102.33L66.9301 73.7699C72.3291 65.4494 79.0823 58.0912 86.9101 51.9999ZM64.0001 78.7499C64.5701 77.6799 65.1701 76.6099 65.8101 75.5499C65.4601 76.1299 65.1201 76.7199 64.8101 77.3099L95.4901 108V129.5L58.6801 92.6899C58.3033 94.2605 58.0063 95.8492 57.7901 97.4499C58.7431 90.8996 60.8454 84.569 64.0001 78.7499ZM66.8901 73.7499C66.5301 74.3199 66.1701 74.8999 65.8201 75.4799C66.1901 74.9399 66.5501 74.3599 66.9101 73.7899L66.8901 73.7499ZM58.1401 110.8C57.2682 106.389 57.1432 101.862 57.7701 97.4099L95.4701 135.11V149.39C85.1801 144.63 62.4701 131.84 58.1601 110.84L58.1401 110.8ZM136.82 110.8C132.76 130.75 108 145 99.4901 149.29V134.52L137.11 96.8999C136.88 95.3399 136.57 93.7599 136.18 92.1799L99.4901 128.87V107.36L130 76.8899C129.667 76.3099 129.333 75.7299 129 75.1499C130.732 77.9999 132.249 80.9748 133.54 84.0499C137.36 93.3599 138.52 102.62 136.84 110.84L136.82 110.8ZM127.82 73.3299C128.16 73.8499 128.48 74.3299 128.82 74.9099C128.49 74.4199 128.17 73.8899 127.83 73.3699L127.82 73.3299Z" fill="white"></path> </svg> 