<?xml version="1.0" encoding="UTF-8"?> <svg xmlns="http://www.w3.org/2000/svg" width="195" height="195" viewBox="0 0 195 195" fill="none"> <path d="M97.5 195C151.348 195 195 151.348 195 97.5C195 43.6522 151.348 0 97.5 0C43.6522 0 0 43.6522 0 97.5C0 151.348 43.6522 195 97.5 195Z" fill="#ED7556"></path> <path d="M111.27 124.5C110.041 124.504 108.843 124.115 107.85 123.39L97.4999 115.87L87.1599 123.39C86.1599 124.098 84.965 124.478 83.7399 124.478C82.5148 124.478 81.3199 124.098 80.3199 123.39C79.3227 122.669 78.5801 121.65 78.1991 120.48C77.8181 119.311 77.8184 118.05 78.1999 116.88L82.1999 104.72L71.8099 97.21C70.815 96.4878 70.0743 95.4692 69.6941 94.3001C69.3138 93.1309 69.3136 91.8715 69.6933 90.7022C70.0731 89.5329 70.8133 88.514 71.808 87.7914C72.8026 87.0688 74.0005 86.6798 75.2299 86.68H87.9999L91.9999 74.52C92.3825 73.3525 93.1243 72.3358 94.1192 71.6149C95.1141 70.894 96.3113 70.5059 97.5399 70.5059C98.7685 70.5059 99.9657 70.894 100.961 71.6149C101.955 72.3358 102.697 73.3525 103.08 74.52L107 86.68H119.79C121.032 86.6803 122.242 87.0782 123.242 87.8155C124.242 88.5529 124.98 89.5909 125.348 90.7778C125.716 91.9646 125.694 93.238 125.286 94.4116C124.878 95.5852 124.105 96.5974 123.08 97.3L112.87 104.72L116.87 116.88C117.251 118.05 117.252 119.311 116.871 120.48C116.49 121.65 115.747 122.669 114.75 123.39C113.741 124.128 112.52 124.518 111.27 124.5ZM97.4999 110.93L110.2 120.15C110.511 120.375 110.886 120.495 111.27 120.495C111.654 120.495 112.028 120.375 112.34 120.15C112.647 119.928 112.876 119.616 112.996 119.258C113.116 118.899 113.121 118.512 113.01 118.15L108.15 103.23L120.76 94C121.014 93.8333 121.222 93.6063 121.367 93.3394C121.512 93.0724 121.589 92.7737 121.59 92.47C121.59 91.989 121.4 91.5276 121.06 91.1866C120.721 90.8456 120.261 90.6527 119.78 90.65H104.08L99.2299 75.76C99.1116 75.3942 98.8804 75.0752 98.5697 74.8489C98.2589 74.6225 97.8844 74.5004 97.4999 74.5C97.1144 74.5013 96.7391 74.6236 96.4269 74.8497C96.1147 75.0758 95.8814 75.3942 95.7599 75.76L90.9199 90.68H75.2299C74.8381 90.6714 74.4539 90.7895 74.1346 91.0168C73.8153 91.244 73.5779 91.5683 73.4577 91.9413C73.3375 92.3143 73.3409 92.7162 73.4674 93.0871C73.5939 93.458 73.8368 93.7782 74.1599 94L86.8499 103.21L81.9999 118.11C81.8875 118.471 81.8907 118.857 82.009 119.216C82.1274 119.575 82.355 119.887 82.6599 120.11C82.9715 120.335 83.3458 120.455 83.7299 120.455C84.114 120.455 84.4883 120.335 84.7999 120.11L97.4999 110.93Z" fill="white"></path> <path d="M97.5 59.1C96.9696 59.1 96.4609 58.8893 96.0858 58.5142C95.7107 58.1391 95.5 57.6304 95.5 57.1V42.5C95.5 41.9696 95.7107 41.4609 96.0858 41.0858C96.4609 40.7107 96.9696 40.5 97.5 40.5C98.0304 40.5 98.5391 40.7107 98.9142 41.0858C99.2893 41.4609 99.5 41.9696 99.5 42.5V57.1C99.5 57.6304 99.2893 58.1391 98.9142 58.5142C98.5391 58.8893 98.0304 59.1 97.5 59.1Z" fill="white"></path> <path d="M57.36 99.5H42.5C41.9696 99.5 41.4609 99.2893 41.0858 98.9142C40.7107 98.5391 40.5 98.0304 40.5 97.5C40.5 96.9696 40.7107 96.4609 41.0858 96.0858C41.4609 95.7107 41.9696 95.5 42.5 95.5H57.36C57.8904 95.5 58.3991 95.7107 58.7742 96.0858C59.1493 96.4609 59.36 96.9696 59.36 97.5C59.36 98.0304 59.1493 98.5391 58.7742 98.9142C58.3991 99.2893 57.8904 99.5 57.36 99.5Z" fill="white"></path> <path d="M152.5 99.5H139.86C139.329 99.5 138.821 99.2893 138.446 98.9142C138.071 98.5391 137.86 98.0304 137.86 97.5C137.86 96.9696 138.071 96.4609 138.446 96.0858C138.821 95.7107 139.329 95.5 139.86 95.5H152.5C153.03 95.5 153.539 95.7107 153.914 96.0858C154.289 96.4609 154.5 96.9696 154.5 97.5C154.5 98.0304 154.289 98.5391 153.914 98.9142C153.539 99.2893 153.03 99.5 152.5 99.5Z" fill="white"></path> <path d="M97.5 154.5C96.9696 154.5 96.4609 154.289 96.0858 153.914C95.7107 153.539 95.5 153.031 95.5 152.5V139.6C95.5 139.07 95.7107 138.561 96.0858 138.186C96.4609 137.811 96.9696 137.6 97.5 137.6C98.0304 137.6 98.5391 137.811 98.9142 138.186C99.2893 138.561 99.5 139.07 99.5 139.6V152.5C99.5 153.031 99.2893 153.539 98.9142 153.914C98.5391 154.289 98.0304 154.5 97.5 154.5Z" fill="white"></path> <path d="M68.9299 70.9299C68.4003 70.9277 67.8932 70.7155 67.5199 70.3399L57.1999 59.9999C56.9707 59.828 56.7811 59.6088 56.6439 59.3572C56.5067 59.1056 56.4252 58.8275 56.4049 58.5417C56.3846 58.2559 56.426 57.969 56.5262 57.7006C56.6264 57.4321 56.7831 57.1883 56.9857 56.9857C57.1883 56.7831 57.4321 56.6264 57.7006 56.5262C57.969 56.426 58.2559 56.3846 58.5417 56.4049C58.8275 56.4252 59.1056 56.5067 59.3572 56.6439C59.6088 56.7811 59.828 56.9707 59.9999 57.1999L70.3399 67.5199C70.6179 67.7996 70.8071 68.1552 70.8835 68.542C70.96 68.9289 70.9204 69.3297 70.7697 69.6941C70.6191 70.0586 70.364 70.3703 70.0366 70.5902C69.7093 70.8101 69.3242 70.9282 68.9299 70.9299Z" fill="white"></path> <path d="M58.6102 138.39C58.0807 138.388 57.5736 138.175 57.2002 137.8C56.8277 137.425 56.6187 136.918 56.6187 136.39C56.6187 135.862 56.8277 135.355 57.2002 134.98L67.7002 124.47C67.8861 124.284 68.1067 124.137 68.3494 124.036C68.5922 123.936 68.8524 123.884 69.1152 123.884C69.378 123.884 69.6382 123.936 69.881 124.036C70.1238 124.137 70.3444 124.284 70.5302 124.47C70.7161 124.656 70.8635 124.876 70.964 125.119C71.0646 125.362 71.1163 125.622 71.1163 125.885C71.1163 126.148 71.0646 126.408 70.964 126.651C70.8635 126.893 70.7161 127.114 70.5302 127.3L60.0002 137.8C59.6318 138.171 59.1329 138.382 58.6102 138.39Z" fill="white"></path> <path d="M127.45 69.5501C127.05 69.5585 126.657 69.4468 126.322 69.2295C125.986 69.0123 125.723 68.6993 125.567 68.3312C125.411 67.963 125.369 67.5565 125.446 67.1641C125.523 66.7718 125.716 66.4116 126 66.13L135 57.2001C135.385 56.9112 135.862 56.771 136.342 56.8051C136.822 56.8392 137.274 57.0454 137.614 57.3858C137.955 57.7263 138.161 58.1781 138.195 58.6583C138.229 59.1385 138.089 59.6149 137.8 60.0001L128.87 69.0001C128.488 69.3635 127.978 69.5611 127.45 69.5501Z" fill="white"></path> <path d="M136.39 138.39C135.86 138.388 135.353 138.176 134.98 137.8L125.85 128.68C125.664 128.494 125.517 128.274 125.416 128.031C125.315 127.788 125.264 127.528 125.264 127.265C125.264 127.002 125.315 126.742 125.416 126.499C125.517 126.256 125.664 126.036 125.85 125.85C126.036 125.664 126.256 125.517 126.499 125.416C126.742 125.316 127.002 125.264 127.265 125.264C127.528 125.264 127.788 125.316 128.031 125.416C128.273 125.517 128.494 125.664 128.68 125.85L137.8 135C138.172 135.375 138.381 135.882 138.381 136.41C138.381 136.938 138.172 137.445 137.8 137.82C137.423 138.188 136.917 138.393 136.39 138.39Z" fill="white"></path> </svg> 