<?xml version="1.0" encoding="UTF-8"?> <!-- Generator: Adobe Illustrator 24.3.0, SVG Export Plug-In . SVG Version: 6.00 Build 0) --> <svg xmlns="http://www.w3.org/2000/svg" xmlns:xlink="http://www.w3.org/1999/xlink" id="Слой_1" x="0px" y="0px" viewBox="0 0 195 195" style="enable-background:new 0 0 195 195;" xml:space="preserve"> <style type="text/css"> .st0{fill:#BC7B9B;} .st1{fill:#FFFFFF;} </style> <g id="back"> <circle class="st0" cx="97.5" cy="97.5" r="97.5"></circle> </g> <path class="st1" d="M156.2,95.7C156.2,95.7,156.2,95.7,156.2,95.7c0-0.1,0-0.2,0-0.2c0-0.1,0-0.2,0-0.2c0-0.1,0-0.1-0.1-0.2 c0-0.1,0-0.1-0.1-0.2c0-0.1-0.1-0.1-0.1-0.2c0,0,0-0.1-0.1-0.1l-15.4-25.1c0,0,0,0,0,0c0,0,0,0,0,0l0,0c0,0,0,0,0,0 c0,0,0-0.1-0.1-0.1c0,0,0,0,0,0c-8.1-13.7-23.6-22.3-40.8-23v-2.1c0-1.2-1-2.1-2.1-2.1c-1.2,0-2.1,1-2.1,2.1v2.1 c-17.2,0.7-32.7,9.3-40.8,23c0,0,0,0,0,0c0,0,0,0,0,0.1c0,0,0,0,0,0L39.1,94.6c0,0,0,0.1-0.1,0.1c0,0.1-0.1,0.1-0.1,0.2 c0,0.1,0,0.1-0.1,0.2c0,0.1,0,0.1-0.1,0.2c0,0.1,0,0.2,0,0.2c0,0,0,0.1,0,0.1c0,0,0,0,0,0.1c0,0,0,0,0,0.1 c0.1,9.8,8.1,17.8,17.9,17.8c9.9,0,17.9-8,17.9-17.8c0,0,0,0,0,0c0,0,0,0,0,0c0,0,0-0.1,0-0.1c0-0.1,0-0.2,0-0.3 c0-0.1,0-0.1-0.1-0.2c0-0.1,0-0.1-0.1-0.2c0-0.1-0.1-0.2-0.1-0.2c0,0,0-0.1-0.1-0.1L58.9,70.6c7.5-11.8,21.2-19.3,36.5-19.9V124 L72.9,140c-0.8,0.5-1.1,1.5-0.8,2.4c0.3,0.9,1.1,1.5,2,1.5h46.6c0.9,0,1.7-0.6,2-1.5s0-1.8-0.8-2.4L99.6,124V50.6 c15.3,0.6,29,8.1,36.5,19.9l-15.4,23.9c0,0,0,0,0,0l0,0c0,0,0,0.1-0.1,0.1c0,0.1-0.1,0.2-0.1,0.2c0,0.1,0,0.1-0.1,0.2 c0,0.1,0,0.1-0.1,0.2c0,0.1,0,0.2,0,0.2c0,0.1,0,0.1,0,0.2c0,0,0,0,0,0c0,0,0,0,0,0c0,9.8,8.1,17.8,17.9,17.8 C148.1,113.6,156.1,105.6,156.2,95.7C156.2,95.8,156.2,95.8,156.2,95.7z M56.4,74.6l12.2,19H44.7L56.4,74.6z M56.7,109.3 c-6.8,0-12.5-5-13.5-11.5h27C69.2,104.3,63.5,109.3,56.7,109.3z M80.8,139.6l16.7-11.8l16.7,11.8H80.8z M138.6,74.6l11.7,19h-23.9 L138.6,74.6z M138.3,109.3c-6.8,0-12.5-5-13.5-11.5h27C150.8,104.3,145.1,109.3,138.3,109.3z"></path> </svg> 